# Blender 4.0.2
# www.blender.org
mtllib vechicle.mtl
o Cube
v 0.196949 0.668632 0.525518
v 0.244122 -0.694104 0.525518
v 0.513622 0.374397 1.552761
v 0.244122 -0.694104 1.552761
v -0.000000 -0.694104 0.525518
v -0.000000 -0.694104 1.552761
v -0.513622 -0.180482 1.552761
v 0.513622 -0.180482 1.552761
v -0.513622 -0.180482 0.525518
v 0.513622 -0.180482 0.525518
v -0.513622 -0.180482 1.552761
v -0.410897 -0.180482 1.552761
v -0.308173 -0.180482 1.552761
v -0.205449 -0.180482 1.552761
v -0.102724 -0.180482 1.552761
v -0.000000 -0.180482 1.552761
v 0.102724 -0.180482 1.552761
v 0.205449 -0.180482 1.552761
v 0.308173 -0.180482 1.552761
v 0.410897 -0.180482 1.552761
v 0.513622 -0.180482 1.552761
v -0.513622 -0.180482 1.450037
v -0.410897 -0.180482 1.450037
v -0.308173 -0.180482 1.450037
v -0.205449 -0.180482 1.450037
v -0.102724 -0.180482 1.450037
v -0.000000 -0.180482 1.450037
v 0.102724 -0.180482 1.450037
v 0.205449 -0.180482 1.450037
v 0.308173 -0.180482 1.450037
v 0.410897 -0.180482 1.450037
v 0.513622 -0.180482 1.450037
v -0.513622 -0.180482 1.347312
v -0.410897 -0.180482 1.347312
v -0.308173 -0.180482 1.347312
v -0.205449 -0.180482 1.347312
v -0.102724 -0.180482 1.347312
v -0.000000 -0.180482 1.347312
v 0.102724 -0.180482 1.347312
v 0.205449 -0.180482 1.347312
v 0.308173 -0.180482 1.347312
v 0.410897 -0.180482 1.347312
v 0.513622 -0.180482 1.347312
v -0.513622 -0.180482 1.244588
v -0.410897 -0.180482 1.244588
v -0.308173 -0.180482 1.244588
v -0.205449 -0.180482 1.244588
v -0.102724 -0.180482 1.244588
v -0.000000 -0.180482 1.244588
v 0.102724 -0.180482 1.244588
v 0.205449 -0.180482 1.244588
v 0.308173 -0.180482 1.244588
v 0.410897 -0.180482 1.244588
v 0.513622 -0.180482 1.244588
v -0.513622 -0.180482 1.141864
v -0.410897 -0.180482 1.141864
v -0.308173 -0.180482 1.141864
v -0.205449 -0.180482 1.141864
v -0.102724 -0.180482 1.141864
v -0.000000 -0.180482 1.141864
v 0.102724 -0.180482 1.141864
v 0.205449 -0.180482 1.141864
v 0.308173 -0.180482 1.141864
v 0.410897 -0.180482 1.141864
v 0.513622 -0.180482 1.141864
v -0.513622 -0.180482 1.039139
v -0.410897 -0.180482 1.039139
v -0.308173 -0.180482 1.039139
v -0.205449 -0.180482 1.039139
v -0.102724 -0.180482 1.039139
v -0.000000 -0.180482 1.039139
v 0.102724 -0.180482 1.039139
v 0.205449 -0.180482 1.039139
v 0.308173 -0.180482 1.039139
v 0.410897 -0.180482 1.039139
v 0.513622 -0.180482 1.039139
v -0.513622 -0.180482 0.936415
v -0.410897 -0.180482 0.936415
v -0.308173 -0.180482 0.936415
v -0.205449 -0.180482 0.936415
v -0.102724 -0.180482 0.936415
v -0.000000 -0.180482 0.936415
v 0.102724 -0.180482 0.936415
v 0.205449 -0.180482 0.936415
v 0.308173 -0.180482 0.936415
v 0.410897 -0.180482 0.936415
v 0.513622 -0.180482 0.936415
v -0.513622 -0.180482 0.833691
v -0.410897 -0.180482 0.833691
v -0.308173 -0.180482 0.833691
v -0.205449 -0.180482 0.833691
v -0.102724 -0.180482 0.833691
v -0.000000 -0.180482 0.833691
v 0.102724 -0.180482 0.833691
v 0.205449 -0.180482 0.833691
v 0.308173 -0.180482 0.833691
v 0.410897 -0.180482 0.833691
v 0.513622 -0.180482 0.833691
v -0.513622 -0.180482 0.730966
v -0.410897 -0.180482 0.730966
v -0.308173 -0.180482 0.730966
v -0.205449 -0.180482 0.730966
v -0.102724 -0.180482 0.730966
v -0.000000 -0.180482 0.730966
v 0.102724 -0.180482 0.730966
v 0.205449 -0.180482 0.730966
v 0.308173 -0.180482 0.730966
v 0.410897 -0.180482 0.730966
v 0.513622 -0.180482 0.730966
v -0.513622 -0.180482 0.628242
v -0.410897 -0.180482 0.628242
v -0.308173 -0.180482 0.628242
v -0.205449 -0.180482 0.628242
v -0.102724 -0.180482 0.628242
v -0.000000 -0.180482 0.628242
v 0.102724 -0.180482 0.628242
v 0.205449 -0.180482 0.628242
v 0.308173 -0.180482 0.628242
v 0.410897 -0.180482 0.628242
v 0.513622 -0.180482 0.628242
v -0.513622 -0.180482 0.525518
v -0.410897 -0.180482 0.525518
v -0.308173 -0.180482 0.525518
v -0.205449 -0.180482 0.525518
v -0.102724 -0.180482 0.525518
v -0.000000 -0.180482 0.525518
v 0.102724 -0.180482 0.525518
v 0.205449 -0.180482 0.525518
v 0.308173 -0.180482 0.525518
v 0.410897 -0.180482 0.525518
v 0.513622 -0.180482 0.525518
v 0.196949 0.668632 -0.032336
v 0.244122 -0.309430 -0.032336
v -0.000000 -0.590112 -0.032336
v 0.196949 0.508152 -1.038660
v 0.513622 -0.546437 -1.038660
v -0.000000 -0.617458 -1.038660
v 0.196949 0.333139 -1.678552
v 0.513622 -0.584721 -1.678552
v -0.000000 0.405757 -1.678552
v -0.000000 -0.621578 -1.678552
v -0.000000 -0.483826 -2.908469
v -0.000000 -0.525296 -2.900109
v -0.000000 -0.482539 -2.898173
v -0.000000 -0.527300 -2.898173
v -0.000000 0.557375 1.552761
v -0.000000 0.720203 0.525518
v 0.513622 0.333139 3.301141
v 0.244122 -0.331827 3.301141
v -0.000000 -0.331827 3.301141
v -0.000000 0.333139 3.301141
v -0.000000 0.384112 3.277514
v 0.545569 0.258033 0.525518
v 0.655716 -0.484443 0.525518
v 0.986157 0.115759 1.552761
v 0.655716 -0.484443 1.552761
v 0.545569 0.227582 -0.032336
v 0.467675 -0.217761 -0.032336
v 0.545569 0.297037 -1.038660
v 0.699847 -0.454768 -1.038660
v 0.354148 0.122024 -1.678552
v 0.699847 -0.493052 -1.678552
v -0.000000 -0.505093 -2.898173
v -0.000000 -0.516862 -2.898173
v 0.986157 0.115759 3.301141
v 0.655716 -0.122166 3.301141
v 1.282804 -0.013537 0.525518
v 1.282804 -0.162017 0.525518
v 1.466568 -0.013537 1.552761
v 1.466568 -0.307166 1.552761
v 0.883521 0.053182 -0.032336
v 0.883521 -0.373941 -0.032336
v 0.883521 -0.114869 -1.038660
v 0.883521 -0.401287 -1.038660
v 0.712665 -0.289882 -1.678552
v 0.712665 -0.439571 -1.678552
v 1.466568 0.079311 3.301141
v 1.136126 -0.103915 3.301141
v 1.585066 0.283500 0.525518
v 1.585066 -0.307166 0.525518
v 1.585066 -0.013537 1.552761
v 1.585066 -0.307166 1.552761
v 1.585066 0.079311 3.391727
v 1.254625 -0.103915 3.301141
v 1.671661 0.283500 0.525518
v 1.671661 -0.307166 0.525518
v 1.671661 -0.013537 1.552761
v 1.671661 -0.307166 1.552761
v 1.671661 0.333139 3.301141
v 1.671661 -0.331827 3.301141
v 1.252330 0.792247 3.592736
v 1.511030 0.792247 3.256063
v 1.328715 0.583362 0.939192
v 1.359417 0.445571 1.507683
v 1.384923 0.616627 1.008272
v 1.521078 0.511053 1.507683
v 1.039812 1.229129 3.353888
v 1.113483 1.229129 3.353888
v 1.266178 0.640548 1.100722
v 1.039812 0.873273 1.775317
v 1.336963 0.677335 1.102918
v 1.113483 0.938756 1.775317
v 1.585066 -0.443733 1.551798
v 1.585066 -0.443733 0.524555
v 1.585066 -0.468393 3.300178
v 1.671661 -0.443733 1.551798
v 1.671661 -0.443733 0.524555
v 1.671661 -0.468393 3.300178
v 1.420610 -0.588111 1.550780
v 1.420610 -0.588111 0.523537
v 1.420610 -0.612772 3.299160
v 1.518679 -0.588111 1.550780
v 1.518679 -0.588111 0.523537
v 1.518679 -0.612772 3.299160
v 1.042555 1.036137 3.809054
v 1.173033 1.036137 3.809054
v 1.039812 1.075270 3.827721
v 1.113483 1.075270 3.827721
v 1.671661 -0.332527 3.297379
v 1.548862 -0.332527 3.297379
v 1.671661 -0.376106 3.478555
v 1.585066 -0.376106 3.478555
v 1.671661 -0.373935 3.482389
v 1.501466 -0.614272 3.303325
v 1.585066 -0.373935 3.482389
v 1.429191 -0.614272 3.303325
v 1.585066 -0.010772 0.006096
v 1.585066 -0.304401 -0.365843
v 1.671661 -0.010772 0.006096
v 1.671661 -0.304401 -0.365843
v 1.671661 -0.314868 -0.366806
v 1.585066 -0.314868 -0.366806
v 1.420610 -0.488967 -0.064728
v 1.518679 -0.488967 -0.064728
v -0.000000 0.553724 -1.127534
v -0.196949 0.668632 0.525518
v -0.244122 -0.694104 0.525518
v -0.513622 0.374397 1.552761
v -0.244122 -0.694104 1.552761
v 0.513622 -0.180482 1.552761
v -0.513622 -0.180482 1.552761
v 0.513622 -0.180482 0.525518
v -0.513622 -0.180482 0.525518
v 0.513622 -0.180482 1.552761
v 0.410897 -0.180482 1.552761
v 0.308173 -0.180482 1.552761
v 0.205449 -0.180482 1.552761
v 0.102724 -0.180482 1.552761
v -0.102724 -0.180482 1.552761
v -0.205449 -0.180482 1.552761
v -0.308173 -0.180482 1.552761
v -0.410897 -0.180482 1.552761
v -0.513622 -0.180482 1.552761
v 0.513622 -0.180482 1.450037
v 0.410897 -0.180482 1.450037
v 0.308173 -0.180482 1.450037
v 0.205449 -0.180482 1.450037
v 0.102724 -0.180482 1.450037
v -0.102724 -0.180482 1.450037
v -0.205449 -0.180482 1.450037
v -0.308173 -0.180482 1.450037
v -0.410897 -0.180482 1.450037
v -0.513622 -0.180482 1.450037
v 0.513622 -0.180482 1.347312
v 0.410897 -0.180482 1.347312
v 0.308173 -0.180482 1.347312
v 0.205449 -0.180482 1.347312
v 0.102724 -0.180482 1.347312
v -0.102724 -0.180482 1.347312
v -0.205449 -0.180482 1.347312
v -0.308173 -0.180482 1.347312
v -0.410897 -0.180482 1.347312
v -0.513622 -0.180482 1.347312
v 0.513622 -0.180482 1.244588
v 0.410897 -0.180482 1.244588
v 0.308173 -0.180482 1.244588
v 0.205449 -0.180482 1.244588
v 0.102724 -0.180482 1.244588
v -0.102724 -0.180482 1.244588
v -0.205449 -0.180482 1.244588
v -0.308173 -0.180482 1.244588
v -0.410897 -0.180482 1.244588
v -0.513622 -0.180482 1.244588
v 0.513622 -0.180482 1.141864
v 0.410897 -0.180482 1.141864
v 0.308173 -0.180482 1.141864
v 0.205449 -0.180482 1.141864
v 0.102724 -0.180482 1.141864
v -0.102724 -0.180482 1.141864
v -0.205449 -0.180482 1.141864
v -0.308173 -0.180482 1.141864
v -0.410897 -0.180482 1.141864
v -0.513622 -0.180482 1.141864
v 0.513622 -0.180482 1.039139
v 0.410897 -0.180482 1.039139
v 0.308173 -0.180482 1.039139
v 0.205449 -0.180482 1.039139
v 0.102724 -0.180482 1.039139
v -0.102724 -0.180482 1.039139
v -0.205449 -0.180482 1.039139
v -0.308173 -0.180482 1.039139
v -0.410897 -0.180482 1.039139
v -0.513622 -0.180482 1.039139
v 0.513622 -0.180482 0.936415
v 0.410897 -0.180482 0.936415
v 0.308173 -0.180482 0.936415
v 0.205449 -0.180482 0.936415
v 0.102724 -0.180482 0.936415
v -0.102724 -0.180482 0.936415
v -0.205449 -0.180482 0.936415
v -0.308173 -0.180482 0.936415
v -0.410897 -0.180482 0.936415
v -0.513622 -0.180482 0.936415
v 0.513622 -0.180482 0.833691
v 0.410897 -0.180482 0.833691
v 0.308173 -0.180482 0.833691
v 0.205449 -0.180482 0.833691
v 0.102724 -0.180482 0.833691
v -0.102724 -0.180482 0.833691
v -0.205449 -0.180482 0.833691
v -0.308173 -0.180482 0.833691
v -0.410897 -0.180482 0.833691
v -0.513622 -0.180482 0.833691
v 0.513622 -0.180482 0.730966
v 0.410897 -0.180482 0.730966
v 0.308173 -0.180482 0.730966
v 0.205449 -0.180482 0.730966
v 0.102724 -0.180482 0.730966
v -0.102724 -0.180482 0.730966
v -0.205449 -0.180482 0.730966
v -0.308173 -0.180482 0.730966
v -0.410897 -0.180482 0.730966
v -0.513622 -0.180482 0.730966
v 0.513622 -0.180482 0.628242
v 0.410897 -0.180482 0.628242
v 0.308173 -0.180482 0.628242
v 0.205449 -0.180482 0.628242
v 0.102724 -0.180482 0.628242
v -0.102724 -0.180482 0.628242
v -0.205449 -0.180482 0.628242
v -0.308173 -0.180482 0.628242
v -0.410897 -0.180482 0.628242
v -0.513622 -0.180482 0.628242
v 0.513622 -0.180482 0.525518
v 0.410897 -0.180482 0.525518
v 0.308173 -0.180482 0.525518
v 0.205449 -0.180482 0.525518
v 0.102724 -0.180482 0.525518
v -0.102724 -0.180482 0.525518
v -0.205449 -0.180482 0.525518
v -0.308173 -0.180482 0.525518
v -0.410897 -0.180482 0.525518
v -0.513622 -0.180482 0.525518
v -0.196949 0.668632 -0.032336
v -0.244122 -0.309430 -0.032336
v -0.196949 0.508152 -1.038660
v -0.513622 -0.546437 -1.038660
v -0.196949 0.333139 -1.678552
v -0.513622 -0.584721 -1.678552
v -0.513622 0.333139 3.301141
v -0.244122 -0.331827 3.301141
v -0.545569 0.258033 0.525518
v -0.655716 -0.484443 0.525518
v -0.986157 0.115759 1.552761
v -0.655716 -0.484443 1.552761
v -0.545569 0.227582 -0.032336
v -0.467675 -0.217761 -0.032336
v -0.545569 0.297037 -1.038660
v -0.699847 -0.454768 -1.038660
v -0.354148 0.122024 -1.678552
v -0.699847 -0.493052 -1.678552
v -0.986157 0.115759 3.301141
v -0.655716 -0.122166 3.301141
v -1.282804 -0.013537 0.525518
v -1.282804 -0.162017 0.525518
v -1.466568 -0.013537 1.552761
v -1.466568 -0.307166 1.552761
v -0.883521 0.053182 -0.032336
v -0.883521 -0.373941 -0.032336
v -0.883521 -0.114869 -1.038660
v -0.883521 -0.401287 -1.038660
v -0.712665 -0.289882 -1.678552
v -0.712665 -0.439571 -1.678552
v -1.466568 0.079311 3.301141
v -1.136126 -0.103915 3.301141
v -1.585066 0.283500 0.525518
v -1.585066 -0.307166 0.525518
v -1.585066 -0.013537 1.552761
v -1.585066 -0.307166 1.552761
v -1.585066 0.079311 3.391727
v -1.254625 -0.103915 3.301141
v -1.671661 0.283500 0.525518
v -1.671661 -0.307166 0.525518
v -1.671661 -0.013537 1.552761
v -1.671661 -0.307166 1.552761
v -1.671661 0.333139 3.301141
v -1.671661 -0.331827 3.301141
v -1.252330 0.792247 3.592736
v -1.511030 0.792247 3.256063
v -1.328715 0.583362 0.939192
v -1.359417 0.445571 1.507683
v -1.384923 0.616627 1.008272
v -1.521078 0.511053 1.507683
v -1.039812 1.229129 3.353888
v -1.113483 1.229129 3.353888
v -1.266178 0.640548 1.100722
v -1.039812 0.873273 1.775317
v -1.336963 0.677335 1.102918
v -1.113483 0.938756 1.775317
v -1.585066 -0.443733 1.551798
v -1.585066 -0.443733 0.524555
v -1.585066 -0.468393 3.300178
v -1.671661 -0.443733 1.551798
v -1.671661 -0.443733 0.524555
v -1.671661 -0.468393 3.300178
v -1.420610 -0.588111 1.550780
v -1.420610 -0.588111 0.523537
v -1.420610 -0.612772 3.299160
v -1.518679 -0.588111 1.550780
v -1.518679 -0.588111 0.523537
v -1.518679 -0.612772 3.299160
v -1.042555 1.036137 3.809054
v -1.173033 1.036137 3.809054
v -1.039812 1.075270 3.827721
v -1.113483 1.075270 3.827721
v -1.671661 -0.332527 3.297379
v -1.548862 -0.332527 3.297379
v -1.671661 -0.376106 3.478555
v -1.585066 -0.376106 3.478555
v -1.671661 -0.373935 3.482389
v -1.501466 -0.614272 3.303325
v -1.585066 -0.373935 3.482389
v -1.429191 -0.614272 3.303325
v -1.585066 -0.010772 0.006096
v -1.585066 -0.304401 -0.365843
v -1.671661 -0.010772 0.006096
v -1.671661 -0.304401 -0.365843
v -1.671661 -0.314868 -0.366806
v -1.585066 -0.314868 -0.366806
v -1.420610 -0.488967 -0.064728
v -1.518679 -0.488967 -0.064728
vn -0.0000 -1.0000 -0.0000
vn 0.4410 -0.8959 0.0536
vn 0.4659 -0.8105 -0.3550
vn 0.7736 0.6334 -0.0173
vn -0.0000 1.0000 -0.0000
vn 0.3676 -0.7748 -0.5143
vn 0.1859 0.9721 -0.1433
vn 0.4147 -0.8934 0.1729
vn 0.6303 0.7734 -0.0680
vn 0.7471 0.4853 -0.4542
vn 0.1044 -0.9940 0.0329
vn 0.4463 -0.8762 0.1816
vn 0.2637 0.7816 -0.5653
vn 0.0749 -0.9941 -0.0784
vn 0.3094 0.9372 0.1608
vn -0.0000 -0.0000 1.0000
vn -0.0000 -0.9792 0.2029
vn 0.7108 0.6009 -0.3656
vn 0.6591 0.5737 -0.4863
vn 0.3810 0.9184 -0.1065
vn 0.1561 -0.9791 -0.1302
vn 0.3893 -0.8702 0.3020
vn 0.4539 -0.8911 -0.0000
vn 0.3341 0.9378 0.0942
vn 0.6128 0.7341 -0.2924
vn 0.4614 -0.8536 -0.2418
vn 0.6827 0.7299 -0.0330
vn -0.0000 -0.0000 -1.0000
vn -0.5686 0.8054 0.1673
vn 0.8132 -0.0000 -0.5820
vn 1.0000 -0.0000 -0.0000
vn 0.9662 -0.0000 -0.2580
vn 0.3126 0.9494 -0.0292
vn 0.1699 0.9851 -0.0262
vn -0.1678 -0.9797 0.1093
vn 0.3268 -0.9403 -0.0957
vn 0.1475 -0.9741 0.1715
vn 0.6548 0.7549 -0.0370
vn 0.8976 0.4394 0.0358
vn -0.0000 -0.9933 0.1155
vn -0.3300 0.3817 0.8634
vn -0.3259 -0.9447 -0.0376
vn 0.0198 0.9985 -0.0517
vn -1.0000 -0.0000 -0.0000
vn 0.1830 -0.1746 0.9675
vn -0.9013 -0.4326 0.0239
vn 0.6602 -0.7424 -0.1144
vn -0.8178 -0.5691 -0.0853
vn 0.7160 0.6970 -0.0393
vn 0.0701 0.8344 -0.5467
vn 0.5195 -0.1437 0.8423
vn 0.9535 0.2970 -0.0506
vn -0.8631 -0.4912 -0.1172
vn -0.3992 0.8982 -0.1839
vn -0.5140 0.7355 -0.4415
vn -0.2016 0.8538 -0.4799
vn 0.7011 0.7031 -0.1187
vn -0.8481 -0.5245 0.0758
vn -0.0000 0.9511 0.3088
vn -0.6597 0.7514 0.0106
vn 0.6864 -0.7272 -0.0103
vn -0.8338 -0.5497 -0.0507
vn -0.0000 -0.9999 -0.0141
vn 0.6005 -0.6920 0.4006
vn 0.6864 -0.7273 -0.0000
vn -0.6597 0.7515 -0.0000
vn -0.8156 -0.2311 -0.5304
vn 0.8619 0.3386 0.3775
vn -0.8492 -0.5023 -0.1631
vn 0.4500 0.8926 -0.0290
vn 0.7463 0.6331 0.2056
vn -0.0000 0.9723 0.2339
vn -0.5497 -0.1295 0.8252
vn -0.0301 -0.0714 0.9970
vn -0.0000 -0.5975 0.8019
vn -0.6521 0.6900 -0.3141
vn -0.0000 -0.9408 -0.3389
vn -0.0000 0.0916 -0.9958
vn -0.0000 0.7849 -0.6196
vn -0.0000 -0.8664 -0.4993
vn -0.0000 -0.9861 -0.1662
vn -0.6330 0.7652 0.1179
vn -0.0000 0.8701 -0.4929
vn -0.0000 0.8702 -0.4927
vn 0.3379 0.9408 0.0246
vn 0.8634 -0.0000 -0.5045
vn 0.6738 -0.7126 -0.1953
vn -0.4410 -0.8959 0.0536
vn -0.4659 -0.8105 -0.3550
vn -0.7736 0.6334 -0.0173
vn -0.3676 -0.7748 -0.5143
vn -0.1859 0.9721 -0.1433
vn -0.4147 -0.8934 0.1729
vn -0.6303 0.7734 -0.0680
vn -0.7471 0.4853 -0.4542
vn -0.1044 -0.9940 0.0329
vn -0.4463 -0.8762 0.1816
vn -0.2637 0.7816 -0.5653
vn -0.0749 -0.9941 -0.0784
vn -0.3094 0.9372 0.1608
vn -0.7108 0.6009 -0.3656
vn -0.6591 0.5737 -0.4863
vn -0.3810 0.9184 -0.1065
vn -0.1561 -0.9791 -0.1302
vn -0.3893 -0.8702 0.3020
vn -0.4539 -0.8911 -0.0000
vn -0.3341 0.9378 0.0942
vn -0.6128 0.7341 -0.2924
vn -0.4614 -0.8536 -0.2418
vn -0.6827 0.7299 -0.0330
vn 0.5686 0.8054 0.1673
vn -0.8132 -0.0000 -0.5820
vn -0.9662 -0.0000 -0.2580
vn -0.3126 0.9494 -0.0292
vn -0.1699 0.9851 -0.0262
vn 0.1678 -0.9797 0.1093
vn -0.3268 -0.9403 -0.0957
vn -0.1475 -0.9741 0.1715
vn -0.6548 0.7549 -0.0370
vn -0.8976 0.4394 0.0358
vn 0.3300 0.3817 0.8634
vn 0.3259 -0.9447 -0.0376
vn -0.0198 0.9985 -0.0517
vn -0.1830 -0.1746 0.9675
vn 0.9013 -0.4326 0.0239
vn -0.6602 -0.7424 -0.1144
vn 0.8178 -0.5691 -0.0853
vn -0.7160 0.6970 -0.0393
vn -0.0701 0.8344 -0.5467
vn -0.5195 -0.1437 0.8423
vn -0.9535 0.2970 -0.0506
vn 0.8631 -0.4912 -0.1172
vn 0.3992 0.8982 -0.1839
vn 0.5140 0.7355 -0.4415
vn 0.2016 0.8538 -0.4799
vn -0.7011 0.7031 -0.1187
vn 0.8480 -0.5245 0.0758
vn 0.6597 0.7514 0.0106
vn -0.6864 -0.7272 -0.0103
vn 0.8338 -0.5497 -0.0507
vn -0.6005 -0.6920 0.4006
vn -0.6864 -0.7273 -0.0000
vn 0.6597 0.7515 -0.0000
vn 0.8156 -0.2311 -0.5304
vn -0.8619 0.3386 0.3775
vn 0.8492 -0.5023 -0.1631
vn -0.4500 0.8926 -0.0290
vn -0.7463 0.6331 0.2056
vn 0.5497 -0.1295 0.8252
vn 0.0301 -0.0714 0.9970
vn 0.6521 0.6900 -0.3141
vn 0.6330 0.7652 0.1179
vn -0.3379 0.9408 0.0246
vn -0.8634 -0.0000 -0.5045
vn -0.6738 -0.7126 -0.1953
vt 0.219793 0.396278
vt 0.246819 0.396329
vt 0.246819 0.511271
vt 0.219793 0.511220
vt 0.279062 0.221153
vt 0.278438 0.149608
vt 0.300549 0.149516
vt 0.301173 0.221061
vt 0.221487 0.333708
vt 0.253089 0.333357
vt 0.427041 0.665949
vt 0.428348 0.603569
vt 0.477471 0.603488
vt 0.479559 0.665949
vt 0.748630 0.759707
vt 0.633947 0.759707
vt 0.633944 0.644756
vt 0.748627 0.644756
vt 0.748627 0.619295
vt 0.737159 0.619295
vt 0.737159 0.607800
vt 0.748627 0.607800
vt 0.725691 0.619295
vt 0.725691 0.607800
vt 0.714222 0.619295
vt 0.714222 0.607799
vt 0.702754 0.619294
vt 0.702754 0.607799
vt 0.691286 0.619294
vt 0.691286 0.607799
vt 0.679818 0.619294
vt 0.679818 0.607799
vt 0.668349 0.619294
vt 0.668349 0.607798
vt 0.656881 0.619293
vt 0.656881 0.607798
vt 0.645413 0.619293
vt 0.645413 0.607798
vt 0.633944 0.619293
vt 0.633944 0.607798
vt 0.737159 0.596305
vt 0.748627 0.596305
vt 0.725691 0.596305
vt 0.714222 0.596304
vt 0.702754 0.596304
vt 0.691286 0.596304
vt 0.679818 0.596304
vt 0.668349 0.596303
vt 0.656881 0.596303
vt 0.645413 0.596303
vt 0.633944 0.596303
vt 0.737159 0.584810
vt 0.748627 0.584810
vt 0.725691 0.584809
vt 0.714222 0.584809
vt 0.702754 0.584809
vt 0.691286 0.584809
vt 0.679818 0.584808
vt 0.668349 0.584808
vt 0.656881 0.584808
vt 0.645413 0.584808
vt 0.633944 0.584807
vt 0.737159 0.573314
vt 0.748627 0.573315
vt 0.725691 0.573314
vt 0.714222 0.573314
vt 0.702754 0.573314
vt 0.691286 0.573314
vt 0.679818 0.573313
vt 0.668349 0.573313
vt 0.656881 0.573313
vt 0.645413 0.573313
vt 0.633944 0.573312
vt 0.737159 0.561819
vt 0.748627 0.561820
vt 0.725691 0.561819
vt 0.714222 0.561819
vt 0.702754 0.561819
vt 0.691286 0.561818
vt 0.679818 0.561818
vt 0.668349 0.561818
vt 0.656881 0.561818
vt 0.645413 0.561817
vt 0.633944 0.561817
vt 0.737159 0.550324
vt 0.748627 0.550324
vt 0.725691 0.550324
vt 0.714222 0.550324
vt 0.702754 0.550323
vt 0.691286 0.550323
vt 0.679818 0.550323
vt 0.668349 0.550323
vt 0.656881 0.550323
vt 0.645413 0.550322
vt 0.633944 0.550322
vt 0.737159 0.538829
vt 0.748627 0.538829
vt 0.725691 0.538829
vt 0.714222 0.538829
vt 0.702754 0.538828
vt 0.691286 0.538828
vt 0.679818 0.538828
vt 0.668349 0.538828
vt 0.656881 0.538827
vt 0.645413 0.538827
vt 0.633944 0.538827
vt 0.737159 0.527334
vt 0.748627 0.527334
vt 0.725691 0.527334
vt 0.714222 0.527333
vt 0.702754 0.527333
vt 0.691286 0.527333
vt 0.679818 0.527333
vt 0.668349 0.527332
vt 0.656881 0.527332
vt 0.645413 0.527332
vt 0.633944 0.527332
vt 0.737159 0.515839
vt 0.748627 0.515839
vt 0.725691 0.515839
vt 0.714222 0.515838
vt 0.702754 0.515838
vt 0.691286 0.515838
vt 0.679817 0.515838
vt 0.668349 0.515837
vt 0.656881 0.515837
vt 0.645413 0.515837
vt 0.633944 0.515837
vt 0.737159 0.504344
vt 0.748627 0.504344
vt 0.725691 0.504343
vt 0.714222 0.504343
vt 0.702754 0.504343
vt 0.691286 0.504343
vt 0.679817 0.504342
vt 0.668349 0.504342
vt 0.656881 0.504342
vt 0.645413 0.504342
vt 0.633944 0.504341
vt 0.279332 0.333273
vt 0.295804 0.396115
vt 0.189872 0.150269
vt 0.191517 0.211913
vt 0.194332 0.396871
vt 0.171951 0.397059
vt 0.171430 0.334636
vt 0.169265 0.222045
vt 0.167330 0.150459
vt 0.221042 0.221146
vt 0.135309 0.512330
vt 0.080579 0.512794
vt 0.129894 0.397424
vt 0.602300 0.894155
vt 0.517397 0.752970
vt 0.542441 0.753248
vt 0.604705 0.893084
vt 0.220975 0.149553
vt 0.252724 0.706384
vt 0.295804 0.511057
vt 0.301708 0.706170
vt 0.181925 0.012730
vt 0.181944 0.013882
vt 0.222511 0.012950
vt 0.222544 0.012730
vt 0.194047 0.511835
vt 0.235066 0.891401
vt 0.309479 0.861283
vt 0.309476 0.918683
vt 0.235064 0.918683
vt 0.225697 0.706332
vt 0.526989 0.680439
vt 0.576154 0.680880
vt 0.591804 0.753623
vt 0.285157 0.808475
vt 0.258530 0.845403
vt 0.260576 0.791715
vt 0.281082 0.754786
vt 0.129140 0.335003
vt 0.045515 0.398135
vt 0.090079 0.335334
vt 0.322825 0.333585
vt 0.370483 0.395785
vt 0.194332 0.704850
vt 0.128732 0.222390
vt 0.148167 0.150626
vt 0.222681 0.012935
vt 0.427041 0.561803
vt 0.427041 0.545205
vt 0.460865 0.512000
vt 0.460865 0.578028
vt 0.025959 0.513253
vt 0.012730 0.513363
vt 0.014042 0.398387
vt 0.574100 0.504341
vt 0.590645 0.504896
vt 0.608484 0.569346
vt 0.560889 0.567752
vt 0.608070 0.681949
vt 0.608484 0.754182
vt 0.082211 0.708436
vt 0.028301 0.708886
vt 0.322379 0.221023
vt 0.388462 0.510974
vt 0.355192 0.706245
vt 0.087856 0.222744
vt 0.533642 0.227413
vt 0.532624 0.422973
vt 0.517397 0.422958
vt 0.518415 0.227399
vt 0.566379 0.227212
vt 0.598479 0.112120
vt 0.638830 0.164845
vt 0.626257 0.221266
vt 0.401581 0.510999
vt 0.368311 0.706270
vt 0.260576 0.778472
vt 0.281094 0.742063
vt 0.401581 0.396057
vt 0.015156 0.719133
vt 0.532624 0.112524
vt 0.606763 0.422518
vt 0.873240 0.569777
vt 0.858533 0.568256
vt 0.868608 0.469045
vt 0.869746 0.469063
vt 0.235075 0.731865
vt 0.309487 0.731865
vt 0.847344 0.274099
vt 0.847344 0.068186
vt 0.932728 0.041127
vt 0.903602 0.276131
vt 0.767635 0.112657
vt 0.748345 0.112761
vt 0.749814 0.046792
vt 0.769512 0.012730
vt 0.922475 0.338896
vt 0.957399 0.242997
vt 0.929539 0.320338
vt 0.646149 0.175216
vt 0.678090 0.249429
vt 0.491937 0.386748
vt 0.482294 0.386059
vt 0.454758 0.337693
vt 0.461314 0.330412
vt 0.388219 0.790503
vt 0.388218 0.805085
vt 0.659436 0.416580
vt 0.885084 0.387509
vt 0.427041 0.241919
vt 0.436911 0.065540
vt 0.445115 0.066126
vt 0.434746 0.242472
vt 0.448646 0.319136
vt 0.456265 0.319436
vt 0.712028 0.425781
vt 0.987270 0.064964
vt 0.441862 0.012730
vt 0.450066 0.013316
vt 0.804636 0.422969
vt 0.799657 0.227383
vt 0.816905 0.226819
vt 0.821884 0.422405
vt 0.767892 0.227598
vt 0.767927 0.423267
vt 0.748637 0.423371
vt 0.748602 0.227702
vt 0.846578 0.682552
vt 0.861285 0.684073
vt 0.794972 0.874524
vt 0.843592 0.878901
vt 0.517397 0.112510
vt 0.532543 0.422552
vt 0.527863 0.442845
vt 0.737745 0.227706
vt 0.737488 0.112764
vt 0.737780 0.423374
vt 0.769512 0.443516
vt 0.746708 0.423839
vt 0.530882 0.012730
vt 0.532050 0.012831
vt 0.796622 0.112472
vt 0.813869 0.111907
vt 0.963831 0.015008
vt 0.690394 0.477036
vt 0.968039 0.012730
vt 0.491937 0.080431
vt 0.465813 0.040794
vt 0.442317 0.014855
vt 0.456847 0.015893
vt 0.695343 0.478881
vt 0.796002 0.422879
vt 0.809706 0.422517
vt 0.805868 0.442901
vt 0.796204 0.443157
vt 0.219793 0.741537
vt 0.230144 0.742561
vt 0.234996 0.745567
vt 0.234997 0.731844
vt 0.427041 0.691409
vt 0.435087 0.696788
vt 0.433756 0.728277
vt 0.427041 0.723789
vt 0.820927 0.422897
vt 0.805896 0.443330
vt 0.738707 0.423842
vt 0.486325 0.521691
vt 0.486325 0.512000
vt 0.487500 0.512000
vt 0.487500 0.521691
vt 0.479672 0.485851
vt 0.480398 0.444186
vt 0.490041 0.444875
vt 0.489315 0.486540
vt 0.759925 0.012733
vt 0.738957 0.046796
vt 0.794972 0.561214
vt 0.832683 0.506929
vt 0.794972 0.012730
vt 0.812888 0.046078
vt 0.565156 0.054228
vt 0.794972 0.423224
vt 0.796232 0.443585
vt 0.193965 0.707499
vt 0.136625 0.707976
vt 0.487485 0.547151
vt 0.486604 0.549577
vt 0.486749 0.550843
vt 0.487069 0.551724
vt 0.486878 0.551965
vt 0.486326 0.547151
vt 0.606017 0.893128
vt 0.302840 0.149442
s 0
usemtl Material.005
f 5/1/1 2/2/1 4/3/1 6/4/1
f 136/5/2 139/6/2 162/7/2 160/8/2
f 2/2/3 5/1/3 134/9/3 133/10/3
f 132/11/4 1/12/4 153/13/4 157/14/4
f 7/15/5 8/16/5 10/17/5 9/18/5
f 11/19/5 12/20/5 23/21/5 22/22/5
f 12/20/5 13/23/5 24/24/5 23/21/5
f 13/23/5 14/25/5 25/26/5 24/24/5
f 14/25/5 15/27/5 26/28/5 25/26/5
f 15/27/5 16/29/5 27/30/5 26/28/5
f 16/29/5 17/31/5 28/32/5 27/30/5
f 17/31/5 18/33/5 29/34/5 28/32/5
f 18/33/5 19/35/5 30/36/5 29/34/5
f 19/35/5 20/37/5 31/38/5 30/36/5
f 20/37/5 21/39/5 32/40/5 31/38/5
f 22/22/5 23/21/5 34/41/5 33/42/5
f 23/21/5 24/24/5 35/43/5 34/41/5
f 24/24/5 25/26/5 36/44/5 35/43/5
f 25/26/5 26/28/5 37/45/5 36/44/5
f 26/28/5 27/30/5 38/46/5 37/45/5
f 27/30/5 28/32/5 39/47/5 38/46/5
f 28/32/5 29/34/5 40/48/5 39/47/5
f 29/34/5 30/36/5 41/49/5 40/48/5
f 30/36/5 31/38/5 42/50/5 41/49/5
f 31/38/5 32/40/5 43/51/5 42/50/5
f 33/42/5 34/41/5 45/52/5 44/53/5
f 34/41/5 35/43/5 46/54/5 45/52/5
f 35/43/5 36/44/5 47/55/5 46/54/5
f 36/44/5 37/45/5 48/56/5 47/55/5
f 37/45/5 38/46/5 49/57/5 48/56/5
f 38/46/5 39/47/5 50/58/5 49/57/5
f 39/47/5 40/48/5 51/59/5 50/58/5
f 40/48/5 41/49/5 52/60/5 51/59/5
f 41/49/5 42/50/5 53/61/5 52/60/5
f 42/50/5 43/51/5 54/62/5 53/61/5
f 44/53/5 45/52/5 56/63/5 55/64/5
f 45/52/5 46/54/5 57/65/5 56/63/5
f 46/54/5 47/55/5 58/66/5 57/65/5
f 47/55/5 48/56/5 59/67/5 58/66/5
f 48/56/5 49/57/5 60/68/5 59/67/5
f 49/57/5 50/58/5 61/69/5 60/68/5
f 50/58/5 51/59/5 62/70/5 61/69/5
f 51/59/5 52/60/5 63/71/5 62/70/5
f 52/60/5 53/61/5 64/72/5 63/71/5
f 53/61/5 54/62/5 65/73/5 64/72/5
f 55/64/5 56/63/5 67/74/5 66/75/5
f 56/63/5 57/65/5 68/76/5 67/74/5
f 57/65/5 58/66/5 69/77/5 68/76/5
f 58/66/5 59/67/5 70/78/5 69/77/5
f 59/67/5 60/68/5 71/79/5 70/78/5
f 60/68/5 61/69/5 72/80/5 71/79/5
f 61/69/5 62/70/5 73/81/5 72/80/5
f 62/70/5 63/71/5 74/82/5 73/81/5
f 63/71/5 64/72/5 75/83/5 74/82/5
f 64/72/5 65/73/5 76/84/5 75/83/5
f 66/75/5 67/74/5 78/85/5 77/86/5
f 67/74/5 68/76/5 79/87/5 78/85/5
f 68/76/5 69/77/5 80/88/5 79/87/5
f 69/77/5 70/78/5 81/89/5 80/88/5
f 70/78/5 71/79/5 82/90/5 81/89/5
f 71/79/5 72/80/5 83/91/5 82/90/5
f 72/80/5 73/81/5 84/92/5 83/91/5
f 73/81/5 74/82/5 85/93/5 84/92/5
f 74/82/5 75/83/5 86/94/5 85/93/5
f 75/83/5 76/84/5 87/95/5 86/94/5
f 77/86/5 78/85/5 89/96/5 88/97/5
f 78/85/5 79/87/5 90/98/5 89/96/5
f 79/87/5 80/88/5 91/99/5 90/98/5
f 80/88/5 81/89/5 92/100/5 91/99/5
f 81/89/5 82/90/5 93/101/5 92/100/5
f 82/90/5 83/91/5 94/102/5 93/101/5
f 83/91/5 84/92/5 95/103/5 94/102/5
f 84/92/5 85/93/5 96/104/5 95/103/5
f 85/93/5 86/94/5 97/105/5 96/104/5
f 86/94/5 87/95/5 98/106/5 97/105/5
f 88/97/5 89/96/5 100/107/5 99/108/5
f 89/96/5 90/98/5 101/109/5 100/107/5
f 90/98/5 91/99/5 102/110/5 101/109/5
f 91/99/5 92/100/5 103/111/5 102/110/5
f 92/100/5 93/101/5 104/112/5 103/111/5
f 93/101/5 94/102/5 105/113/5 104/112/5
f 94/102/5 95/103/5 106/114/5 105/113/5
f 95/103/5 96/104/5 107/115/5 106/114/5
f 96/104/5 97/105/5 108/116/5 107/115/5
f 97/105/5 98/106/5 109/117/5 108/116/5
f 99/108/5 100/107/5 111/118/5 110/119/5
f 100/107/5 101/109/5 112/120/5 111/118/5
f 101/109/5 102/110/5 113/121/5 112/120/5
f 102/110/5 103/111/5 114/122/5 113/121/5
f 103/111/5 104/112/5 115/123/5 114/122/5
f 104/112/5 105/113/5 116/124/5 115/123/5
f 105/113/5 106/114/5 117/125/5 116/124/5
f 106/114/5 107/115/5 118/126/5 117/125/5
f 107/115/5 108/116/5 119/127/5 118/126/5
f 108/116/5 109/117/5 120/128/5 119/127/5
f 110/119/5 111/118/5 122/129/5 121/130/5
f 111/118/5 112/120/5 123/131/5 122/129/5
f 112/120/5 113/121/5 124/132/5 123/131/5
f 113/121/5 114/122/5 125/133/5 124/132/5
f 114/122/5 115/123/5 126/134/5 125/133/5
f 115/123/5 116/124/5 127/135/5 126/134/5
f 116/124/5 117/125/5 128/136/5 127/135/5
f 117/125/5 118/126/5 129/137/5 128/136/5
f 118/126/5 119/127/5 130/138/5 129/137/5
f 119/127/5 120/128/5 131/139/5 130/138/5
f 2/2/6 133/10/6 158/140/6 154/141/6
f 140/142/7 235/143/7 147/144/7 1/145/7 132/146/7 135/147/7 138/148/7
f 133/10/8 134/9/8 137/149/8 136/5/8
f 1/145/9 3/150/9 155/151/9 153/152/9
f 142/153/10 138/154/10 161/155/10 163/156/10
f 136/5/11 137/149/11 141/157/11 139/6/11
f 149/158/12 4/3/12 156/159/12 166/160/12
f 140/142/13 138/148/13 142/161/13 144/162/13
f 139/6/14 141/157/14 145/163/14 143/164/14
f 146/165/15 3/150/15 1/145/15 147/144/15
f 149/166/16 148/167/16 151/168/16 150/169/16
f 6/4/17 4/3/17 149/158/17 150/170/17
f 161/155/18 159/171/18 173/172/18 175/173/18
f 165/174/16 166/175/16 178/176/16 177/177/16
f 163/156/19 161/155/19 175/173/19
f 157/178/20 153/152/20 167/179/20 171/180/20
f 154/141/21 158/140/21 172/181/21 168/182/21
f 148/167/16 149/166/16 166/175/16 165/174/16
f 133/10/22 136/5/22 160/8/22 158/140/22
f 4/3/23 2/2/23 154/141/23 156/159/23
f 3/150/24 146/165/24 152/183/24
f 138/148/25 135/147/25 159/184/25 161/185/25
f 139/6/26 143/164/26 164/186/26 162/7/26
f 135/147/27 132/146/27 157/178/27 159/184/27
f 168/187/28 167/188/28 179/189/28 180/190/28
f 167/179/29 169/191/29 181/192/29 179/193/29
f 167/194/30 168/195/30 172/196/30 171/197/30
f 171/197/31 172/196/31 174/198/31 173/172/31
f 173/172/32 174/198/32 176/199/32 175/173/32
f 153/152/33 155/151/33 169/191/33 167/179/33
f 155/151/34 165/200/34 177/201/34 169/191/34
f 158/140/35 160/8/35 174/202/35 172/181/35
f 156/159/36 154/141/36 168/182/36 170/203/36
f 166/160/37 156/159/37 170/203/37 178/204/37
f 159/184/38 157/178/38 171/180/38 173/205/38
f 188/206/31 190/207/31 208/208/31 206/209/31
f 187/210/39 185/211/39 195/212/39 196/213/39
f 178/204/40 170/203/40 182/214/40 184/215/40
f 177/177/41 178/176/41 184/216/41 183/217/41
f 170/203/42 168/182/42 180/218/42 182/214/42
f 169/191/43 177/201/43 183/219/43 181/192/43
f 186/220/31 185/211/31 187/210/31 188/206/31
f 188/206/31 187/210/31 189/221/31 190/207/31
f 204/222/44 180/223/44 228/224/44 232/225/44
f 183/217/45 184/216/45 190/226/45 189/227/45
f 181/228/46 183/229/46 191/230/46 194/231/46
f 207/232/47 213/233/47 234/234/47 231/235/47
f 193/236/48 194/231/48 200/237/48 199/238/48
f 196/213/49 195/212/49 201/239/49 202/240/49
f 185/241/50 179/242/50 193/243/50 195/244/50
f 183/217/51 189/227/51 216/245/51 215/246/51
f 189/221/52 187/210/52 196/213/52 192/247/52
f 179/248/53 181/228/53 194/231/53 193/236/53
f 200/249/54 197/250/54 198/251/54 202/252/54
f 199/253/55 200/249/55 202/252/55 201/254/55
f 195/244/56 193/243/56 199/253/56 201/254/56
f 192/247/57 196/213/57 202/240/57 198/255/57
f 194/231/58 191/230/58 197/256/58 200/237/58
f 198/251/59 197/250/59 217/257/59 218/258/59
f 205/259/60 203/260/60 209/261/60 211/262/60
f 206/263/61 208/264/61 214/265/61 212/266/61
f 182/267/44 180/223/44 204/222/44 203/268/44
f 184/269/62 182/267/62 203/268/62 205/270/62
f 186/220/31 188/206/31 206/209/31 207/271/31
f 208/208/31 190/207/31 219/272/31 221/273/31
f 209/274/1 210/275/1 213/233/1 212/266/1
f 211/276/63 209/274/63 212/266/63 214/265/63
f 214/265/64 208/264/64 223/277/64 224/278/64
f 186/220/31 207/271/31 231/279/31 230/280/31
f 207/232/65 206/263/65 212/266/65 213/233/65
f 203/260/66 204/281/66 210/282/66 209/261/66
f 191/230/67 183/229/67 215/283/67
f 189/221/68 192/247/68 216/284/68
f 197/256/69 191/230/69 217/285/69
f 192/286/70 218/258/70 217/257/70 191/287/70 215/288/70 216/289/70
f 192/247/71 198/255/71 218/290/71
f 219/291/72 220/292/72 222/293/72 221/294/72
f 184/216/73 205/295/73 222/296/73 220/297/73
f 190/226/74 184/216/74 220/297/74 219/298/74
f 223/299/75 225/300/75 226/301/75 224/302/75
f 205/259/76 211/262/76 226/303/76 225/304/76
f 211/276/77 214/265/77 224/278/77 226/305/77
f 228/306/78 230/307/78 231/308/78 232/309/78
f 228/310/79 227/311/79 229/312/79 230/313/79
f 232/314/80 231/235/80 234/234/80 233/315/80
f 180/223/44 179/316/44 227/317/44 228/224/44
f 213/233/81 210/275/81 233/315/81 234/234/81
f 210/282/82 204/281/82 232/318/82 233/319/82
f 185/211/31 186/220/31 230/280/31 229/320/31
f 179/242/83 185/241/83 229/312/83 227/311/83
f 208/321/84 221/294/84 222/293/84 205/259/84 225/304/84 223/322/84
f 3/150/85 152/183/85 151/323/85 148/324/85 165/200/85 155/151/85
f 142/325/44 163/326/44 164/327/44 143/328/44 145/329/44 144/330/44
f 164/331/86 163/156/86 175/173/86 176/199/86
f 160/8/87 162/7/87 164/186/87 176/332/87 174/202/87
f 5/1/1 6/4/1 239/3/1 237/2/1
f 357/5/88 369/8/88 371/7/88 359/6/88
f 237/2/89 355/10/89 134/9/89 5/1/89
f 354/11/90 366/14/90 362/13/90 236/12/90
f 240/15/5 242/18/5 243/17/5 241/16/5
f 244/19/5 254/22/5 255/21/5 245/20/5
f 245/20/5 255/21/5 256/24/5 246/23/5
f 246/23/5 256/24/5 257/26/5 247/25/5
f 247/25/5 257/26/5 258/28/5 248/27/5
f 248/27/5 258/28/5 27/30/5 16/29/5
f 16/29/5 27/30/5 259/32/5 249/31/5
f 249/31/5 259/32/5 260/34/5 250/33/5
f 250/33/5 260/34/5 261/36/5 251/35/5
f 251/35/5 261/36/5 262/38/5 252/37/5
f 252/37/5 262/38/5 263/40/5 253/39/5
f 254/22/5 264/42/5 265/41/5 255/21/5
f 255/21/5 265/41/5 266/43/5 256/24/5
f 256/24/5 266/43/5 267/44/5 257/26/5
f 257/26/5 267/44/5 268/45/5 258/28/5
f 258/28/5 268/45/5 38/46/5 27/30/5
f 27/30/5 38/46/5 269/47/5 259/32/5
f 259/32/5 269/47/5 270/48/5 260/34/5
f 260/34/5 270/48/5 271/49/5 261/36/5
f 261/36/5 271/49/5 272/50/5 262/38/5
f 262/38/5 272/50/5 273/51/5 263/40/5
f 264/42/5 274/53/5 275/52/5 265/41/5
f 265/41/5 275/52/5 276/54/5 266/43/5
f 266/43/5 276/54/5 277/55/5 267/44/5
f 267/44/5 277/55/5 278/56/5 268/45/5
f 268/45/5 278/56/5 49/57/5 38/46/5
f 38/46/5 49/57/5 279/58/5 269/47/5
f 269/47/5 279/58/5 280/59/5 270/48/5
f 270/48/5 280/59/5 281/60/5 271/49/5
f 271/49/5 281/60/5 282/61/5 272/50/5
f 272/50/5 282/61/5 283/62/5 273/51/5
f 274/53/5 284/64/5 285/63/5 275/52/5
f 275/52/5 285/63/5 286/65/5 276/54/5
f 276/54/5 286/65/5 287/66/5 277/55/5
f 277/55/5 287/66/5 288/67/5 278/56/5
f 278/56/5 288/67/5 60/68/5 49/57/5
f 49/57/5 60/68/5 289/69/5 279/58/5
f 279/58/5 289/69/5 290/70/5 280/59/5
f 280/59/5 290/70/5 291/71/5 281/60/5
f 281/60/5 291/71/5 292/72/5 282/61/5
f 282/61/5 292/72/5 293/73/5 283/62/5
f 284/64/5 294/75/5 295/74/5 285/63/5
f 285/63/5 295/74/5 296/76/5 286/65/5
f 286/65/5 296/76/5 297/77/5 287/66/5
f 287/66/5 297/77/5 298/78/5 288/67/5
f 288/67/5 298/78/5 71/79/5 60/68/5
f 60/68/5 71/79/5 299/80/5 289/69/5
f 289/69/5 299/80/5 300/81/5 290/70/5
f 290/70/5 300/81/5 301/82/5 291/71/5
f 291/71/5 301/82/5 302/83/5 292/72/5
f 292/72/5 302/83/5 303/84/5 293/73/5
f 294/75/5 304/86/5 305/85/5 295/74/5
f 295/74/5 305/85/5 306/87/5 296/76/5
f 296/76/5 306/87/5 307/88/5 297/77/5
f 297/77/5 307/88/5 308/89/5 298/78/5
f 298/78/5 308/89/5 82/90/5 71/79/5
f 71/79/5 82/90/5 309/91/5 299/80/5
f 299/80/5 309/91/5 310/92/5 300/81/5
f 300/81/5 310/92/5 311/93/5 301/82/5
f 301/82/5 311/93/5 312/94/5 302/83/5
f 302/83/5 312/94/5 313/95/5 303/84/5
f 304/86/5 314/97/5 315/96/5 305/85/5
f 305/85/5 315/96/5 316/98/5 306/87/5
f 306/87/5 316/98/5 317/99/5 307/88/5
f 307/88/5 317/99/5 318/100/5 308/89/5
f 308/89/5 318/100/5 93/101/5 82/90/5
f 82/90/5 93/101/5 319/102/5 309/91/5
f 309/91/5 319/102/5 320/103/5 310/92/5
f 310/92/5 320/103/5 321/104/5 311/93/5
f 311/93/5 321/104/5 322/105/5 312/94/5
f 312/94/5 322/105/5 323/106/5 313/95/5
f 314/97/5 324/108/5 325/107/5 315/96/5
f 315/96/5 325/107/5 326/109/5 316/98/5
f 316/98/5 326/109/5 327/110/5 317/99/5
f 317/99/5 327/110/5 328/111/5 318/100/5
f 318/100/5 328/111/5 104/112/5 93/101/5
f 93/101/5 104/112/5 329/113/5 319/102/5
f 319/102/5 329/113/5 330/114/5 320/103/5
f 320/103/5 330/114/5 331/115/5 321/104/5
f 321/104/5 331/115/5 332/116/5 322/105/5
f 322/105/5 332/116/5 333/117/5 323/106/5
f 324/108/5 334/119/5 335/118/5 325/107/5
f 325/107/5 335/118/5 336/120/5 326/109/5
f 326/109/5 336/120/5 337/121/5 327/110/5
f 327/110/5 337/121/5 338/122/5 328/111/5
f 328/111/5 338/122/5 115/123/5 104/112/5
f 104/112/5 115/123/5 339/124/5 329/113/5
f 329/113/5 339/124/5 340/125/5 330/114/5
f 330/114/5 340/125/5 341/126/5 331/115/5
f 331/115/5 341/126/5 342/127/5 332/116/5
f 332/116/5 342/127/5 343/128/5 333/117/5
f 334/119/5 344/130/5 345/129/5 335/118/5
f 335/118/5 345/129/5 346/131/5 336/120/5
f 336/120/5 346/131/5 347/132/5 337/121/5
f 337/121/5 347/132/5 348/133/5 338/122/5
f 338/122/5 348/133/5 126/134/5 115/123/5
f 115/123/5 126/134/5 349/135/5 339/124/5
f 339/124/5 349/135/5 350/136/5 340/125/5
f 340/125/5 350/136/5 351/137/5 341/126/5
f 341/126/5 351/137/5 352/138/5 342/127/5
f 342/127/5 352/138/5 353/139/5 343/128/5
f 237/2/91 363/141/91 367/140/91 355/10/91
f 140/142/92 358/148/92 356/147/92 354/146/92 236/145/92 147/144/92 235/143/92
f 355/10/93 357/5/93 137/149/93 134/9/93
f 236/145/94 362/152/94 364/151/94 238/150/94
f 142/153/95 163/156/95 370/155/95 358/154/95
f 357/5/96 359/6/96 141/157/96 137/149/96
f 361/158/97 373/160/97 365/159/97 239/3/97
f 140/142/98 144/162/98 142/161/98 358/148/98
f 359/6/99 143/164/99 145/163/99 141/157/99
f 146/165/100 147/144/100 236/145/100 238/150/100
f 361/166/16 150/169/16 151/168/16 360/167/16
f 6/4/17 150/170/17 361/158/17 239/3/17
f 370/155/101 382/173/101 380/172/101 368/171/101
f 372/174/16 384/177/16 385/176/16 373/175/16
f 163/156/102 382/173/102 370/155/102
f 366/178/103 378/180/103 374/179/103 362/152/103
f 363/141/104 375/182/104 379/181/104 367/140/104
f 360/167/16 372/174/16 373/175/16 361/166/16
f 355/10/105 367/140/105 369/8/105 357/5/105
f 239/3/106 365/159/106 363/141/106 237/2/106
f 238/150/107 152/183/107 146/165/107
f 358/148/108 370/185/108 368/184/108 356/147/108
f 359/6/109 371/7/109 164/186/109 143/164/109
f 356/147/110 368/184/110 366/178/110 354/146/110
f 375/187/28 387/190/28 386/189/28 374/188/28
f 374/179/111 386/193/111 388/192/111 376/191/111
f 374/194/112 378/197/112 379/196/112 375/195/112
f 378/197/44 380/172/44 381/198/44 379/196/44
f 380/172/113 382/173/113 383/199/113 381/198/113
f 362/152/114 374/179/114 376/191/114 364/151/114
f 364/151/115 376/191/115 384/201/115 372/200/115
f 367/140/116 379/181/116 381/202/116 369/8/116
f 365/159/117 377/203/117 375/182/117 363/141/117
f 373/160/118 385/204/118 377/203/118 365/159/118
f 368/184/119 380/205/119 378/180/119 366/178/119
f 395/206/44 413/209/44 415/208/44 397/207/44
f 394/210/120 403/213/120 402/212/120 392/211/120
f 385/204/40 391/215/40 389/214/40 377/203/40
f 384/177/121 390/217/121 391/216/121 385/176/121
f 377/203/122 389/214/122 387/218/122 375/182/122
f 376/191/123 388/192/123 390/219/123 384/201/123
f 393/220/44 395/206/44 394/210/44 392/211/44
f 395/206/44 397/207/44 396/221/44 394/210/44
f 411/222/31 439/225/31 435/224/31 387/223/31
f 390/217/124 396/227/124 397/226/124 391/216/124
f 388/228/125 401/231/125 398/230/125 390/229/125
f 414/232/126 438/235/126 441/234/126 420/233/126
f 400/236/127 406/238/127 407/237/127 401/231/127
f 403/213/128 409/240/128 408/239/128 402/212/128
f 392/241/129 402/244/129 400/243/129 386/242/129
f 390/217/130 422/246/130 423/245/130 396/227/130
f 396/221/131 399/247/131 403/213/131 394/210/131
f 386/248/132 400/236/132 401/231/132 388/228/132
f 407/249/133 409/252/133 405/251/133 404/250/133
f 406/253/134 408/254/134 409/252/134 407/249/134
f 402/244/135 408/254/135 406/253/135 400/243/135
f 399/247/136 405/255/136 409/240/136 403/213/136
f 401/231/137 407/237/137 404/256/137 398/230/137
f 405/251/59 425/258/59 424/257/59 404/250/59
f 412/259/138 418/262/138 416/261/138 410/260/138
f 413/263/139 419/266/139 421/265/139 415/264/139
f 389/267/31 410/268/31 411/222/31 387/223/31
f 391/269/140 412/270/140 410/268/140 389/267/140
f 393/220/44 414/271/44 413/209/44 395/206/44
f 415/208/44 428/273/44 426/272/44 397/207/44
f 416/274/1 419/266/1 420/233/1 417/275/1
f 418/276/63 421/265/63 419/266/63 416/274/63
f 421/265/141 431/278/141 430/277/141 415/264/141
f 393/220/44 437/280/44 438/279/44 414/271/44
f 414/232/142 420/233/142 419/266/142 413/263/142
f 410/260/143 416/261/143 417/282/143 411/281/143
f 398/230/144 422/283/144 390/229/144
f 396/221/145 423/284/145 399/247/145
f 404/256/146 424/285/146 398/230/146
f 399/286/147 423/289/147 422/288/147 398/287/147 424/257/147 425/258/147
f 399/247/148 425/290/148 405/255/148
f 426/291/72 428/294/72 429/293/72 427/292/72
f 391/216/149 427/297/149 429/296/149 412/295/149
f 397/226/150 426/298/150 427/297/150 391/216/150
f 430/299/75 431/302/75 433/301/75 432/300/75
f 412/259/151 432/304/151 433/303/151 418/262/151
f 418/276/77 433/305/77 431/278/77 421/265/77
f 435/306/78 439/309/78 438/308/78 437/307/78
f 435/310/79 437/313/79 436/312/79 434/311/79
f 439/314/80 440/315/80 441/234/80 438/235/80
f 387/223/31 435/224/31 434/317/31 386/316/31
f 420/233/81 441/234/81 440/315/81 417/275/81
f 417/282/152 440/319/152 439/318/152 411/281/152
f 392/211/44 436/320/44 437/280/44 393/220/44
f 386/242/83 434/311/83 436/312/83 392/241/83
f 415/321/84 430/322/84 432/304/84 412/259/84 429/293/84 428/294/84
f 238/150/153 364/151/153 372/200/153 360/324/153 151/323/153 152/183/153
f 164/331/154 383/199/154 382/173/154 163/156/154
f 369/8/155 381/202/155 383/332/155 164/186/155 371/7/155
